<svg width="200" height="155" viewBox="0 0 200 155" fill="none" xmlns="http://www.w3.org/2000/svg">
<g id="New Balance Logo">
<path id="Vector" d="M100.915 67.9761L106.933 57.5351L127.375 56.2307L128.09 54.9586L109.197 53.6542L113.639 46.0323H148.685C159.464 46.0323 167.426 49.8864 164.322 61.125C163.402 64.564 159.019 73.1615 146.144 76.7514C148.89 77.0748 155.677 80.0718 154.486 87.8391C152.406 101.627 134.498 108.182 124.515 108.182L83.1269 108.214L81.0686 100.237L102.762 98.7274L103.504 97.45L79.9636 96.0269L77.434 86.567L110.898 84.6104L111.64 83.3652L51.537 79.6298L54.4295 74.6438L119.148 70.4664L119.895 69.2212L100.915 67.9761ZM127.998 70.0513L133.957 70.019C137.954 69.992 142.092 68.1863 143.615 64.5317C145.017 61.125 143.138 58.2197 140.635 58.2467H134.856L127.998 70.0513ZM121.119 81.8829L113.937 94.3074H120.789C123.979 94.3074 129.672 92.7335 131.427 88.2272C133.063 84.0174 130.057 81.8829 127.971 81.8829H121.114H121.119ZM68.9082 101.067L64.7374 108.155L35 108.209L37.8925 103.234L68.9082 101.067ZM70.9936 46L94.9189 46.0323L96.7389 52.7594L68.1607 50.9806L70.9936 46ZM98.0768 58.1011L100.698 67.9761L59.8461 65.3079L62.7061 60.3489L98.0768 58.1011ZM77.2769 86.567L72.0932 95.5203L43.2766 93.8924L46.1691 88.9118L77.2769 86.567Z" fill="#0B0B0B"/>
</g>
</svg>
