<svg width="200" height="155" viewBox="0 0 200 155" fill="none" xmlns="http://www.w3.org/2000/svg">
<g id="Nike Logo">
<path id="Vector" d="M189 46L58.7772 101.734C47.9784 106.326 38.9078 108.63 31.5726 108.63C23.2659 108.63 17.2361 105.707 13.4981 99.855C11.147 96.0977 10.4572 91.334 11.4214 85.5563C12.3855 79.7787 14.9517 73.6283 19.1051 67.0828C22.5687 61.7897 28.2425 54.8342 36.1413 46.2087C33.4621 50.4482 31.4975 55.103 30.3266 59.9856C28.2499 68.8944 30.1189 75.4324 35.9336 79.6072C38.7001 81.553 42.5049 82.5296 47.3554 82.5296C51.2269 82.5296 55.588 81.9034 60.4385 80.6509L189 46Z" fill="#0B0B0B"/>
</g>
</svg>
