<svg width="200" height="155" viewBox="0 0 200 155" fill="none" xmlns="http://www.w3.org/2000/svg">
<g id="Puma Logo">
<path id="Vector" d="M189.098 24.5044C186.665 21.4017 182.413 23.8873 180.54 24.97C167.217 32.8051 165.251 46.601 160.607 54.5234C156.956 60.8683 150.971 65.5251 145.557 65.886C141.556 66.1713 137.216 65.3971 132.911 63.5285C122.37 58.9823 116.694 53.0972 115.311 52.0611C112.47 49.9073 90.6361 28.6897 72.8443 27.8223C72.8443 27.8223 70.6743 23.4566 70.1318 23.3809C68.8368 23.2354 67.5068 26.0062 66.5384 26.2972C65.6634 26.6057 64.1293 23.3169 63.2426 23.4624C62.3501 23.5788 61.4809 26.8735 59.7426 28.5674C58.4592 29.8073 56.9075 29.7316 56.0267 31.2626C55.7234 31.8214 55.8284 32.8051 55.4842 33.7074C54.7434 35.5701 52.27 35.768 52.2467 37.7647C52.2467 39.9825 54.3292 40.4074 56.1492 41.9558C57.5959 43.1899 57.695 44.063 59.3809 44.6393C60.8859 45.1515 63.0676 43.5508 65.0043 44.127C66.6201 44.5985 68.1718 44.942 68.516 46.5893C68.831 48.0795 68.516 50.4196 66.5326 50.1576C65.8793 50.0703 63.0442 49.1448 59.5442 49.5173C55.315 49.9655 50.485 51.316 50.0125 55.9787C49.7733 58.5807 53.0108 61.625 56.1667 61.0197C58.3309 60.6064 57.31 58.0742 58.4942 56.8518C60.0517 55.2801 68.831 62.3469 76.9977 62.3469C80.4569 62.3469 83.0119 61.4737 85.5552 58.8251C85.7886 58.6563 86.0977 58.2314 86.4594 58.1848C86.865 58.2898 87.2497 58.4631 87.5969 58.6971C94.1945 63.9185 99.1703 74.4138 123.356 74.5361C126.751 74.5768 130.647 76.1602 133.832 79.059C136.632 81.5795 138.289 85.6077 139.881 89.6824C142.32 95.8119 146.654 101.726 153.252 108.327C153.602 108.723 159.027 112.868 159.435 113.176C159.505 113.234 159.925 114.148 159.744 114.66C159.627 118.677 159.027 130.203 167.707 130.686C169.842 130.802 169.311 129.341 169.311 128.299C169.282 126.314 168.932 124.312 169.97 122.245C171.446 119.463 166.902 118.118 167.001 112.023C167.112 107.46 163.238 108.234 161.261 104.747C160.152 102.751 159.114 101.65 159.219 99.2405C159.645 85.3865 156.203 76.2591 154.523 74.0529C153.199 72.3416 152.056 71.7071 153.316 70.9096C160.549 66.1654 162.212 61.7473 162.212 61.7473C166.062 52.7771 169.538 44.6044 174.316 40.9662C175.284 40.2677 177.752 38.405 179.286 37.7064C183.737 35.5992 186.128 34.3419 187.383 33.1195C189.459 31.1578 191.087 26.9899 189.098 24.5044Z" fill="#0B0B0B"/>
</g>
</svg>
