<svg width="22" height="22" viewBox="0 0 22 22" fill="none" xmlns="http://www.w3.org/2000/svg">
<g id="search icon 1" clip-path="url(#clip0_44_33)">
<path id="Vector" d="M13.4704 12.8333H12.7929L12.5527 12.5858C13.3932 11.5408 13.8992 10.1842 13.8992 8.70833C13.8992 5.4175 11.4035 2.75 8.32461 2.75C5.24571 2.75 2.75 5.4175 2.75 8.70833C2.75 11.9992 5.24571 14.6667 8.32461 14.6667C9.7054 14.6667 10.9747 14.1258 11.9524 13.2275L12.184 13.4842V14.2083L16.4721 18.7825L17.75 17.4167L13.4704 12.8333ZM8.32461 12.8333C6.18911 12.8333 4.46527 10.9908 4.46527 8.70833C4.46527 6.42583 6.18911 4.58333 8.32461 4.58333C10.4601 4.58333 12.184 6.42583 12.184 8.70833C12.184 10.9908 10.4601 12.8333 8.32461 12.8333Z" fill="#0B0B0B"/>
</g>
<defs>
<clipPath id="clip0_44_33">
<rect width="22" height="22" fill="white"/>
</clipPath>
</defs>
</svg>
