<svg width="129" height="19" viewBox="0 0 129 19" fill="none" xmlns="http://www.w3.org/2000/svg">
<path d="M8.22 18.384C6.764 18.384 5.396 18.232 4.116 17.928C2.836 17.608 1.78 17.192 0.948 16.68L3.132 12.504C4.94 13.544 6.828 14.064 8.796 14.064C9.516 14.064 10.068 13.976 10.452 13.8C10.836 13.624 11.028 13.384 11.028 13.08C11.028 12.792 10.828 12.56 10.428 12.384C10.044 12.208 9.428 12.016 8.58 11.808C7.46 11.52 6.532 11.232 5.796 10.944C5.06 10.64 4.412 10.184 3.852 9.576C3.308 8.952 3.036 8.136 3.036 7.128C3.036 5.864 3.372 4.76 4.044 3.816C4.732 2.856 5.716 2.12 6.996 1.608C8.276 1.08 9.788 0.816 11.532 0.816C12.78 0.816 13.94 0.943999 15.012 1.2C16.1 1.44 17.036 1.792 17.82 2.256L15.78 6.384C15.124 5.968 14.396 5.656 13.596 5.448C12.812 5.24 12.004 5.136 11.172 5.136C10.388 5.136 9.78 5.248 9.348 5.472C8.916 5.696 8.7 5.96 8.7 6.264C8.7 6.568 8.892 6.808 9.276 6.984C9.676 7.16 10.324 7.352 11.22 7.56C12.308 7.816 13.22 8.088 13.956 8.376C14.708 8.664 15.356 9.112 15.9 9.72C16.444 10.328 16.716 11.128 16.716 12.12C16.716 13.368 16.372 14.464 15.684 15.408C14.996 16.352 14.012 17.088 12.732 17.616C11.452 18.128 9.948 18.384 8.22 18.384ZM37.2414 1.2L33.8814 18H28.2174L29.4654 11.808H24.2334L22.9854 18H17.3214L20.6814 1.2H26.3454L25.1454 7.152H30.3774L31.5774 1.2H37.2414ZM56.2905 1.2L52.9305 18H47.4345L47.7465 16.512C47.1225 17.12 46.4265 17.584 45.6585 17.904C44.9065 18.224 44.1225 18.384 43.3065 18.384C41.5785 18.384 40.2185 17.888 39.2265 16.896C38.2345 15.904 37.7385 14.504 37.7385 12.696C37.7385 11.976 37.8185 11.224 37.9785 10.44L39.8265 1.2H45.4905L43.6185 10.536C43.5385 10.984 43.4985 11.36 43.4985 11.664C43.4985 13.088 44.1785 13.8 45.5385 13.8C46.3225 13.8 46.9945 13.544 47.5545 13.032C48.1305 12.504 48.5305 11.68 48.7545 10.56L50.6265 1.2H56.2905ZM68.5532 9.144H73.4732L71.6972 18H68.0492L68.2652 16.968C67.6572 17.464 67.0012 17.824 66.2972 18.048C65.5932 18.272 64.8092 18.384 63.9452 18.384C62.6172 18.384 61.3932 18.08 60.2732 17.472C59.1532 16.864 58.2572 16 57.5852 14.88C56.9292 13.744 56.6012 12.432 56.6012 10.944C56.6012 8.976 57.0572 7.224 57.9692 5.688C58.8812 4.152 60.1532 2.96 61.7852 2.112C63.4172 1.248 65.2892 0.816 67.4012 0.816C69.0652 0.816 70.5532 1.096 71.8652 1.656C73.1932 2.216 74.2492 3.032 75.0332 4.104L70.9772 7.248C70.4492 6.576 69.8812 6.104 69.2732 5.832C68.6652 5.544 67.9532 5.4 67.1372 5.4C66.1612 5.4 65.3052 5.616 64.5692 6.048C63.8492 6.48 63.2892 7.088 62.8892 7.872C62.5052 8.64 62.3132 9.52 62.3132 10.512C62.3132 11.568 62.5932 12.4 63.1532 13.008C63.7132 13.6 64.4972 13.896 65.5052 13.896C66.2572 13.896 67.0012 13.68 67.7372 13.248L68.5532 9.144ZM91.9905 6.72C91.9905 8.208 91.5905 9.512 90.7905 10.632C90.0065 11.736 88.8945 12.56 87.4545 13.104L90.2625 18H84.3825L82.0065 13.776H80.6145L79.7745 18H74.1105L77.4705 1.2H85.0065C87.2145 1.2 88.9265 1.688 90.1425 2.664C91.3745 3.624 91.9905 4.976 91.9905 6.72ZM86.2545 7.272C86.2545 6.136 85.5505 5.568 84.1425 5.568H82.2465L81.4545 9.504H83.7825C84.5665 9.504 85.1745 9.312 85.6065 8.928C86.0385 8.528 86.2545 7.976 86.2545 7.272ZM111.673 1.2L108.313 18H102.817L103.129 16.512C102.505 17.12 101.809 17.584 101.041 17.904C100.289 18.224 99.5053 18.384 98.6893 18.384C96.9613 18.384 95.6013 17.888 94.6093 16.896C93.6173 15.904 93.1213 14.504 93.1213 12.696C93.1213 11.976 93.2013 11.224 93.3613 10.44L95.2093 1.2H100.873L99.0013 10.536C98.9213 10.984 98.8813 11.36 98.8813 11.664C98.8813 13.088 99.5613 13.8 100.921 13.8C101.705 13.8 102.377 13.544 102.937 13.032C103.513 12.504 103.913 11.68 104.137 10.56L106.009 1.2H111.673ZM121.872 1.2C124.112 1.2 125.848 1.688 127.08 2.664C128.312 3.64 128.928 5.008 128.928 6.768C128.928 8.176 128.576 9.416 127.872 10.488C127.184 11.56 126.192 12.392 124.896 12.984C123.616 13.576 122.128 13.872 120.432 13.872H117.528L116.712 18H111.048L114.408 1.2H121.872ZM120.72 9.504C121.504 9.504 122.112 9.312 122.544 8.928C122.976 8.528 123.192 7.976 123.192 7.272C123.192 6.136 122.488 5.568 121.08 5.568H119.184L118.392 9.504H120.72Z" fill="#0B0B0B"/>
</svg>
